<?xml version="1.0" encoding="UTF-8" standalone="no"?>
<svg
   xmlns:dc="http://purl.org/dc/elements/1.1/"
   xmlns:cc="http://creativecommons.org/ns#"
   xmlns:rdf="http://www.w3.org/1999/02/22-rdf-syntax-ns#"
   xmlns:svg="http://www.w3.org/2000/svg"
   xmlns="http://www.w3.org/2000/svg"
   xmlns:xlink="http://www.w3.org/1999/xlink"
   version="1.1"
   id="svg2"
   viewBox="0 0 48 48">
  <metadata
     id="metadata20">
    <rdf:RDF>
      <cc:Work
         rdf:about="">
        <dc:format>image/svg+xml</dc:format>
        <dc:type
           rdf:resource="http://purl.org/dc/dcmitype/StillImage" />
        <dc:title></dc:title>
      </cc:Work>
    </rdf:RDF>
  </metadata>
  <defs
     id="defs4">
    <path
       d="M44.5 20H24v8.5h11.8C34.7 33.9 30.1 37 24 37c-7.2 0-13-5.8-13-13s5.8-13 13-13c3.1 0 5.9 1.1 8.1 2.9l6.4-6.4C34.6 4.1 29.6 2 24 2 11.8 2 2 11.8 2 24s9.8 22 22 22c11 0 21-8 21-22 0-1.3-.2-2.7-.5-4z"
       id="a" />
  </defs>
  <clipPath
     id="b">
    <use
       id="use8"
       overflow="visible"
       xlink:href="#a" />
  </clipPath>
  <path
     id="path10"
     d="M0 37V11l17 13z"
     fill="#FBBC05"
     clip-path="url(#b)" />
  <path
     id="path12"
     d="M0 11l17 13 7-6.1L48 14V0H0z"
     fill="#EA4335"
     clip-path="url(#b)" />
  <path
     id="path14"
     d="M0 37l30-23 7.9 1L48 0v48H0z"
     fill="#34A853"
     clip-path="url(#b)" />
  <path
     id="path16"
     d="M48 48L17 24l-4-3 35-10z"
     fill="#4285F4"
     clip-path="url(#b)" />
</svg>
