<?xml version="1.0" encoding="UTF-8" standalone="no"?>
<!-- Svg Vector Icons : http://www.onlinewebfonts.com/icon -->

<svg
   xmlns:dc="http://purl.org/dc/elements/1.1/"
   xmlns:cc="http://creativecommons.org/ns#"
   xmlns:rdf="http://www.w3.org/1999/02/22-rdf-syntax-ns#"
   xmlns:svg="http://www.w3.org/2000/svg"
   xmlns="http://www.w3.org/2000/svg"
   xmlns:sodipodi="http://sodipodi.sourceforge.net/DTD/sodipodi-0.dtd"
   xmlns:inkscape="http://www.inkscape.org/namespaces/inkscape"
   version="1.1"
   x="0px"
   y="0px"
   viewBox="0 0 1000 1000"
   enable-background="new 0 0 1000 1000"
   xml:space="preserve"
   id="svg2"
   inkscape:version="0.91 r13725"
   sodipodi:docname="iconFence.svg"><defs
     id="defs14" /><sodipodi:namedview
     pagecolor="#ffffff"
     bordercolor="#666666"
     borderopacity="1"
     objecttolerance="10"
     gridtolerance="10"
     guidetolerance="10"
     inkscape:pageopacity="0"
     inkscape:pageshadow="2"
     inkscape:window-width="1280"
     inkscape:window-height="616"
     id="namedview12"
     showgrid="false"
     inkscape:zoom="0.236"
     inkscape:cx="-290.25424"
     inkscape:cy="500"
     inkscape:window-x="-8"
     inkscape:window-y="-8"
     inkscape:window-maximized="1"
     inkscape:current-layer="g6" /><metadata
     id="metadata4"> Svg Vector Icons : http://www.onlinewebfonts.com/icon <rdf:RDF><cc:Work
     rdf:about=""><dc:format>image/svg+xml</dc:format><dc:type
       rdf:resource="http://purl.org/dc/dcmitype/StillImage" /><dc:title></dc:title></cc:Work></rdf:RDF></metadata><g
     id="g6"><path
       d="M500,10c-140.6,0-255.7,115.1-255.7,255.7c0,221.6,255.7,622.1,255.7,622.1S755.6,483,755.6,265.7C755.6,125.1,640.6,10,500,10z M500,350.9c-46.9,0-85.2-38.3-85.2-85.2c0-46.9,38.3-85.2,85.2-85.2c46.9,0,85.2,38.3,85.2,85.2C585.2,312.5,546.9,350.9,500,350.9z"
       id="path10"
       style="fill:#7f0000;fill-opacity:1" /><path
       stroke-miterlimit="10"
       d="M738.6,725.8C879.2,751.4,973,794,973,849.4c0,76.7-213,140.6-473,140.6c-259.9,0-473-63.9-473-140.6c0-51.1,93.7-98,234.3-123.6"
       id="path8"
       stroke-linejoin="round"
       stroke-width="1.5"
       stroke="#040000"
       fill="none"
       style="fill:none;fill-opacity:1;stroke-width:26.9;stroke-miterlimit:10;stroke-dasharray:none;opacity:0.99;stroke:#048a00;stroke-opacity:1" /></g></svg>